# xmcd
#
# Track frame offsets: 
#        150
#        18925
#        35815
#        50848
#        68503
#        87433
#        105834
#        122345
#        138539
#
# Disc length: 2074 seconds
#
# Revision: 0
# Processed by: cddbd v1.5.2PL0 Copyright (c) Steve Scherf et al.
# Submitted via: ExactAudioCopy v0.90b4
#
DISCID=71081809
DTITLE=Frank Reyes - Te Regalo El Mar
DYEAR=2007
DGENRE=Latin
TTITLE0=Amor Desperdiciado
TTITLE1=No Te Vayas
TTITLE2=Te Curaré
TTITLE3=Ven, Que Se Muere Mi Alma
TTITLE4=Dime Dónde Estas
TTITLE5=Me Gustas
TTITLE6=Te Regalo El Mar
TTITLE7=No Me Importa, No
TTITLE8=Tan Lejos De Tí (Merengue)
EXTD=
EXTT0=
EXTT1=
EXTT2=
EXTT3=
EXTT4=
EXTT5=
EXTT6=
EXTT7=
EXTT8=
PLAYORDER=
